<svg width="30" height="30" viewBox="0 0 30 30" fill="none" xmlns="http://www.w3.org/2000/svg">
<path d="M23.7505 5C25.1255 5 26.2505 6.125 26.2505 7.5V22.5C26.2505 23.875 25.1255 25 23.7505 25H6.25049C4.86316 24.9998 3.7505 23.8749 3.75049 22.5V7.5C3.75049 6.12512 4.86315 5.00019 6.25049 5H23.7505ZM8.75146 11.25C8.06396 11.25 7.50146 11.8125 7.50146 12.5V17.5C7.50147 18.1875 8.06397 18.75 8.75146 18.75H12.5015C13.1888 18.7499 13.7515 18.1874 13.7515 17.5V16.875C13.7515 16.5251 13.4763 16.2501 13.1265 16.25H12.5015C12.1515 16.25 11.8765 16.525 11.8765 16.875H9.37646V13.125H11.8765C11.8765 13.475 12.1515 13.75 12.5015 13.75H13.1265C13.4763 13.7499 13.7515 13.4749 13.7515 13.125V12.5C13.7515 11.8126 13.1888 11.2501 12.5015 11.25H8.75146ZM17.5015 11.25C16.814 11.25 16.2515 11.8125 16.2515 12.5V17.5C16.2515 18.1875 16.814 18.75 17.5015 18.75H21.2515C21.9388 18.7498 22.5015 18.1873 22.5015 17.5V16.875C22.5015 16.5251 22.2263 16.2502 21.8765 16.25H21.2515C20.9015 16.25 20.6265 16.525 20.6265 16.875H18.1265V13.125H20.6265C20.6265 13.475 20.9015 13.75 21.2515 13.75H21.8765C22.2263 13.7498 22.5015 13.4748 22.5015 13.125V12.5C22.5015 11.8126 21.9388 11.2502 21.2515 11.25H17.5015Z" fill="#CBCBCB"/>
</svg>
