<svg width="30" height="30" viewBox="0 0 30 30" fill="none" xmlns="http://www.w3.org/2000/svg">
<path d="M15.041 3.57233C15.041 3.00983 15.716 2.73463 16.1035 3.12213L20.8408 7.85944C21.0908 8.10942 21.0908 8.49713 20.8408 8.74713L16.1035 13.4844C15.716 13.8844 15.041 13.6094 15.041 13.0469V9.55963C10.3786 9.55963 6.69082 13.8345 7.70314 18.6719C8.30313 21.4969 10.3781 23.66 13.1904 24.335C17.7529 25.435 21.8658 22.3472 22.4658 18.1348C22.5533 17.5224 23.0656 17.0598 23.6904 17.0596C24.4404 17.0596 25.0529 17.7225 24.9404 18.46C24.1653 24.0473 18.7658 28.1468 12.7285 26.7969C8.86605 25.9344 5.99125 22.9471 5.24123 19.0596C3.99123 12.6596 8.86603 7.05963 15.041 7.05963V3.57233ZM17.2031 15.4092C17.4781 15.4092 17.7164 15.4467 17.9414 15.5342C18.1538 15.6217 18.3532 15.7599 18.5156 15.9473C18.678 16.1347 18.8032 16.3844 18.8906 16.6592C18.9781 16.9342 19.0283 17.2847 19.0283 17.6846V18.6094C19.0283 19.0094 18.9908 19.3473 18.9033 19.6348C18.8159 19.9221 18.6909 20.1593 18.541 20.3467C18.391 20.5342 18.2035 20.6723 17.9785 20.7598C17.7536 20.8473 17.5161 20.8848 17.2412 20.8848C16.9664 20.8848 16.7288 20.8472 16.5039 20.7598C16.2789 20.6723 16.0912 20.5342 15.9287 20.3467C15.7663 20.1593 15.6412 19.9097 15.5537 19.6348C15.4662 19.3598 15.416 19.0094 15.416 18.6094V17.6846C15.416 17.2847 15.466 16.9467 15.541 16.6592C15.616 16.372 15.7535 16.1347 15.9033 15.9473C16.0533 15.7598 16.2408 15.6217 16.4658 15.5342C16.6907 15.4468 16.9283 15.4093 17.2031 15.4092ZM13.666 20.8096H12.6035V16.7344L11.3408 17.1221V16.2598L13.5528 15.4717H13.666V20.8096ZM17.2158 16.2725C17.1034 16.2726 17.0033 16.2975 16.9033 16.335C16.8036 16.3726 16.7409 16.4471 16.666 16.5469C16.591 16.6469 16.5531 16.7721 16.5156 16.9346C16.4782 17.097 16.4659 17.297 16.4658 17.5342V18.7471C16.4658 18.9844 16.4782 19.1843 16.5156 19.3467C16.5531 19.5092 16.6035 19.6471 16.666 19.7471C16.7285 19.8471 16.8159 19.9225 16.9033 19.96C16.9908 19.9975 17.1034 20.0225 17.2158 20.0225C17.3282 20.0225 17.4285 19.9975 17.5283 19.96C17.6283 19.9225 17.7032 19.847 17.7656 19.7471C17.8281 19.6471 17.8658 19.5092 17.9033 19.3467C17.9408 19.1843 17.9531 18.9845 17.9531 18.7471H17.9658V17.5342C17.9658 17.2969 17.9535 17.097 17.916 16.9346C17.8785 16.7721 17.8281 16.6469 17.7656 16.5469C17.7032 16.4471 17.6157 16.3725 17.5283 16.335C17.4408 16.2975 17.3283 16.2725 17.2158 16.2725Z" fill="#CBCBCB"/>
</svg>
