<svg width="30" height="30" viewBox="0 0 30 30" fill="none" xmlns="http://www.w3.org/2000/svg">
<path d="M7.49951 17.5C8.18682 17.5002 8.7495 18.0626 8.74951 18.75V21.25H11.2495C11.9368 21.2502 12.4995 21.8126 12.4995 22.5C12.4995 23.1874 11.9368 23.7498 11.2495 23.75H7.49951C6.81201 23.75 6.24951 23.1875 6.24951 22.5V18.75C6.24952 18.0625 6.81202 17.5 7.49951 17.5ZM22.4995 17.5C23.1868 17.5002 23.7495 18.0626 23.7495 18.75V22.5C23.7495 23.1874 23.1869 23.7498 22.4995 23.75H18.7495C18.062 23.75 17.4995 23.1875 17.4995 22.5C17.4995 21.8125 18.062 21.25 18.7495 21.25H21.2495V18.75C21.2495 18.0625 21.812 17.5 22.4995 17.5ZM11.2495 6.25C11.9368 6.25022 12.4995 6.81265 12.4995 7.5C12.4995 8.18736 11.9368 8.74978 11.2495 8.75H8.74951V11.25C8.74951 11.9374 8.18682 12.4998 7.49951 12.5C6.81201 12.5 6.24951 11.9375 6.24951 11.25V7.5C6.24953 6.81251 6.81202 6.25 7.49951 6.25H11.2495ZM22.4995 6.25C23.1868 6.25019 23.7495 6.81263 23.7495 7.5V11.25C23.7495 11.9374 23.1869 12.4998 22.4995 12.5C21.812 12.5 21.2495 11.9375 21.2495 11.25V8.75H18.7495C18.062 8.75 17.4995 8.1875 17.4995 7.5C17.4995 6.81251 18.062 6.25 18.7495 6.25H22.4995Z" fill="#CBCBCB"/>
</svg>
