<svg width="30" height="30" viewBox="0 0 30 30" fill="none" xmlns="http://www.w3.org/2000/svg">
<path d="M23.7505 3.75C25.1255 3.75 26.2505 4.875 26.2505 6.25V23.75C26.2505 25.125 25.1255 26.25 23.7505 26.25H6.25049C4.86316 26.2498 3.7505 25.1249 3.75049 23.75V6.25C3.75049 4.87512 4.86315 3.75019 6.25049 3.75H23.7505ZM12.814 11.25C12.3015 11.25 11.8765 11.675 11.8765 12.1875V14.375H9.37646V12.1875C9.37646 11.6751 8.95134 11.2501 8.43896 11.25C7.92647 11.25 7.50146 11.675 7.50146 12.1875V17.8125C7.50147 18.325 7.92647 18.75 8.43896 18.75C8.95134 18.7499 9.37646 18.3249 9.37646 17.8125V16.25H11.8765V17.8125C11.8765 18.325 12.3015 18.75 12.814 18.75C13.3263 18.7498 13.7515 18.3249 13.7515 17.8125V12.1875C13.7515 11.6751 13.3263 11.2502 12.814 11.25ZM16.8765 11.25C16.5265 11.25 16.2515 11.525 16.2515 11.875V18.125C16.2515 18.475 16.5265 18.75 16.8765 18.75H21.2515C21.9388 18.7498 22.5015 18.1873 22.5015 17.5V12.5C22.5015 11.8126 21.9388 11.2502 21.2515 11.25H16.8765ZM20.6265 13.125V16.875H18.1265V13.125H20.6265Z" fill="#CBCBCB"/>
</svg>
