<svg width="30" height="30" viewBox="0 0 30 30" fill="none" xmlns="http://www.w3.org/2000/svg">
<path d="M13.8899 3.12695C14.2774 2.72695 14.9524 3.00195 14.9524 3.56445V7.05176C21.1399 7.05176 26.0024 12.652 24.7649 19.0645C24.0023 22.9644 20.865 26.1018 16.9651 26.8643C11.0528 28.0141 5.82821 23.952 5.05298 18.4648C4.95298 17.7148 5.55298 17.0518 6.30298 17.0518C6.92786 17.0518 7.45253 17.5144 7.52759 18.1143C8.12759 22.2518 12.1032 25.3145 16.5657 24.377C19.3905 23.7893 21.6901 21.5015 22.2776 18.6641C23.3024 13.8267 19.6148 9.55176 14.9524 9.55176V13.0518C14.9524 13.6018 14.2774 13.8768 13.8899 13.4893L9.15259 8.75195C8.90269 8.50197 8.90267 8.11423 9.15259 7.86426L13.8899 3.12695ZM17.1028 15.4023C17.3776 15.4024 17.6152 15.4399 17.8401 15.5273C18.0649 15.6149 18.2529 15.7521 18.4153 15.9395C18.5777 16.1269 18.7028 16.365 18.7903 16.6523C18.8777 16.9397 18.927 17.2771 18.927 17.6768V18.6016C18.927 19.0016 18.8895 19.352 18.802 19.627C18.7145 19.9019 18.5897 20.1524 18.4397 20.3398C18.2897 20.5272 18.0896 20.6645 17.8772 20.752C17.6647 20.8394 17.4148 20.877 17.1399 20.877C16.865 20.877 16.6275 20.8394 16.4026 20.752C16.1777 20.6645 15.9898 20.5272 15.8274 20.3398C15.6649 20.1524 15.5399 19.9144 15.4524 19.627C15.3649 19.3395 15.3147 19.0016 15.3147 18.6016V17.6768C15.3147 17.277 15.3523 16.9272 15.4397 16.6523C15.5272 16.3775 15.6521 16.1269 15.802 15.9395C15.9519 15.7521 16.1522 15.6149 16.3645 15.5273C16.577 15.4398 16.8278 15.4023 17.1028 15.4023ZM13.5774 20.8018H12.5149V16.7266L11.2522 17.1143V16.252L13.4651 15.4648H13.5774V20.8018ZM17.1145 16.2646C17.0022 16.2647 16.8894 16.2897 16.802 16.3271C16.7147 16.3647 16.6271 16.4393 16.5647 16.5391C16.5022 16.639 16.4528 16.7644 16.4153 16.9268C16.3778 17.0893 16.3645 17.2898 16.3645 17.5273V18.7393C16.3645 18.9768 16.3778 19.1773 16.4153 19.3398C16.4527 19.502 16.5023 19.6394 16.5647 19.7393C16.6271 19.8391 16.7022 19.9146 16.802 19.9521C16.9019 19.9896 17.0022 20.0146 17.1145 20.0146C17.2268 20.0146 17.3396 19.9895 17.427 19.9521C17.5145 19.9146 17.6028 19.8393 17.6653 19.7393C17.7276 19.6394 17.777 19.502 17.802 19.3398C17.827 19.1773 17.8528 18.9768 17.8528 18.7393V17.5273H17.8645C17.8645 17.2898 17.8522 17.0893 17.8147 16.9268C17.7772 16.7644 17.7278 16.639 17.6653 16.5391C17.6028 16.4391 17.527 16.3646 17.427 16.3271C17.3271 16.2897 17.2269 16.2646 17.1145 16.2646Z" fill="#CBCBCB"/>
</svg>
